# xmcd CD database file
#
# Track frame offsets:
#	150
#	14208
#	43990
#	73680
#	100194
#	118822
#	133293
#	171684
#	183089
#	197789
#	212434
#	225230
#	234599
#	256254
#	271415
#	304457
#
# Disc length: 4422 seconds
#
# Revision: 0
# Processed by: cddbd v1.5PL3 Copyright (c) Steve Scherf et al.
# Submitted via: CDex 1.51
#
DISCID=f4114410
DTITLE=Blues And Jazz Goes Wild - Blues And Jazz Goes Wild
DYEAR=1900
DGENRE=Jazz
TTITLE0=Flip Phillips/ Lazy River
TTITLE1=Flip Phillips/ Music Maestro Please
TTITLE2=Art Pepper/ Third Track
TTITLE3=Art Pepper/ Nineth Track
TTITLE4=Art Pepper/ Fifth Track
TTITLE5=Meade Lewis/ Honky Tonk Train Blues
TTITLE6=John Mayall/ Exercise in C Major for Harmonica
TTITLE7=Harry James/ Ciribiribin
TTITLE8=Andy Kirk/ Moten Swing
TTITLE9=Glenn Miller/ 5000
TTITLE10=John Mayall/ You Don't Love me
TTITLE11=Al Jarreau/ Ain't no Sunshine
TTITLE12=Barry Goldberg/ Blues For Barry and Michael
TTITLE13=Bud Freeman/ Sweet Sue
TTITLE14=Buddy Tate/ The One For me
TTITLE15=Buddy Tate/ Bottle It
EXTD=
EXTT0=
EXTT1=
EXTT2=
EXTT3=
EXTT4=
EXTT5=
EXTT6=
EXTT7=
EXTT8=
EXTT9=
EXTT10=
EXTT11=
EXTT12=
EXTT13=
EXTT14=
EXTT15=
PLAYORDER=
